<svg id="Capa_1" enable-background="new 0 0 512 512" height="512" viewBox="0 0 512 512" width="512" xmlns="http://www.w3.org/2000/svg"><g><path d="m497 60h-22.5v-22.5c0-4.142-3.357-7.5-7.5-7.5h-22.5v-22.5c0-4.142-3.357-7.5-7.5-7.5h-332c-4.143 0-7.5 3.358-7.5 7.5v324.5h-82.5c-4.143 0-7.5 3.358-7.5 7.5 0 28.949 23.552 52.5 52.5 52.5h332c28.948 0 52.5-23.551 52.5-52.5v-294.5h15v422h-332v-52.5c0-4.142-3.357-7.5-7.5-7.5s-7.5 3.358-7.5 7.5v60c0 4.142 3.357 7.5 7.5 7.5h22.5v22.5c0 4.142 3.357 7.5 7.5 7.5h347c4.143 0 7.5-3.358 7.5-7.5v-437c0-4.142-3.357-7.5-7.5-7.5zm-437 317c-18.109 0-33.262-12.905-36.747-30h316.781c1.677 11.673 7.208 22.118 15.259 30zm369.5-37.5c0 20.678-16.822 37.5-37.5 37.5s-37.5-16.822-37.5-37.5c0-4.142-3.357-7.5-7.5-7.5h-234.5v-317h317zm60 157.5h-332v-15h309.5c4.143 0 7.5-3.358 7.5-7.5v-399.5h15z"/><path d="m271 60c-12.406 0-22.5 10.093-22.5 22.5v122c0 12.407 10.094 22.5 22.5 22.5s22.5-10.093 22.5-22.5v-122c0-12.407-10.094-22.5-22.5-22.5zm7.5 144.5c0 4.136-3.364 7.5-7.5 7.5s-7.5-3.364-7.5-7.5v-122c0-4.136 3.364-7.5 7.5-7.5s7.5 3.364 7.5 7.5z"/><path d="m271 242c-12.406 0-22.5 10.093-22.5 22.5s10.094 22.5 22.5 22.5 22.5-10.093 22.5-22.5-10.094-22.5-22.5-22.5zm0 30c-4.136 0-7.5-3.364-7.5-7.5s3.364-7.5 7.5-7.5 7.5 3.364 7.5 7.5-3.364 7.5-7.5 7.5z"/></g></svg>